<svg id="Layer_1" data-name="Layer 1" xmlns="http://www.w3.org/2000/svg" viewBox="0 0 97.52 91.07"><defs><style>.cls-1{fill:#231f20;}</style></defs><path class="cls-1" d="M77.1,79.85H27A5.13,5.13,0,0,1,21.9,74c1-7.38,4.42-32.11,4.91-40a5.13,5.13,0,0,1,5.11-4.82H71.74a5.15,5.15,0,0,1,5.08,4.45l5.36,40.39a5.12,5.12,0,0,1-5.08,5.8ZM31.92,34.09a.25.25,0,0,0-.25.24c-.48,7.83-3.62,30.83-5,40.36a.28.28,0,0,0,.06.2A.24.24,0,0,0,27,75H77.1a.26.26,0,0,0,.19-.08.25.25,0,0,0,.06-.2L72,34.31a.25.25,0,0,0-.25-.22Z"/><path class="cls-1" d="M62.53,45.21H62.3a2.44,2.44,0,0,1-2.19-2.66c0-.2,0-.41,0-.62V25.82a8.1,8.1,0,0,0-16.2,0v16.1c0,.2,0,.42,0,.62a2.44,2.44,0,1,1-4.85.46,9.65,9.65,0,0,1,0-1.08V25.82a13,13,0,0,1,13-13,13,13,0,0,1,13,13v16.1c0,.37,0,.73-.05,1.09A2.43,2.43,0,0,1,62.53,45.21Z"/></svg>