<svg id="Layer_1" data-name="Layer 1" xmlns="http://www.w3.org/2000/svg" xmlns:xlink="http://www.w3.org/1999/xlink" viewBox="0 0 294.87 315.07"><defs><style>.cls-1{fill:#050505;}.cls-2,.cls-3,.cls-4,.cls-5{fill-rule:evenodd;}.cls-2{fill:url(#linear-gradient);}.cls-3{fill:url(#linear-gradient-2);}.cls-4{fill:url(#linear-gradient-3);}.cls-5{fill:url(#linear-gradient-4);}.cls-6{fill:url(#linear-gradient-5);}.cls-7{fill:url(#linear-gradient-6);}.cls-8{fill:url(#linear-gradient-7);}.cls-9{fill:url(#linear-gradient-8);}.cls-10{fill:url(#linear-gradient-9);}</style><linearGradient id="linear-gradient" x1="149.01" y1="26.28" x2="146.3" y2="293.54" gradientUnits="userSpaceOnUse"><stop offset="0" stop-color="#e0ce7c"/><stop offset="0.53" stop-color="#d3ba61"/><stop offset="1" stop-color="#8b5f25"/></linearGradient><linearGradient id="linear-gradient-2" x1="147.6" y1="26.26" x2="144.88" y2="293.53" xlink:href="#linear-gradient"/><linearGradient id="linear-gradient-3" x1="198.2" y1="26.78" x2="195.49" y2="294.04" xlink:href="#linear-gradient"/><linearGradient id="linear-gradient-4" x1="97.44" y1="25.75" x2="94.73" y2="293.02" xlink:href="#linear-gradient"/><linearGradient id="linear-gradient-5" x1="136.76" y1="26.15" x2="134.05" y2="293.42" xlink:href="#linear-gradient"/><linearGradient id="linear-gradient-6" x1="173.96" y1="26.53" x2="171.25" y2="293.79" xlink:href="#linear-gradient"/><linearGradient id="linear-gradient-7" x1="123.58" y1="26.02" x2="120.87" y2="293.28" xlink:href="#linear-gradient"/><linearGradient id="linear-gradient-8" x1="149.62" y1="26.28" x2="146.9" y2="293.55" xlink:href="#linear-gradient"/><linearGradient id="linear-gradient-9" x1="149.7" y1="26.28" x2="146.98" y2="293.55" xlink:href="#linear-gradient"/></defs><circle class="cls-1" cx="147.44" cy="157.53" r="129.07"/><path class="cls-2" d="M189.9,166.63a249.91,249.91,0,0,1-.83,26.34c-.95,10.18-3,20.49-7.12,29.58-3,6.49-8.53,12.28-14.51,16.67-7.57,5.6-15.71,9-20,9s-12.47-3.37-20-9c-6-4.39-11.51-10.18-14.5-16.67-4.14-9.09-6.17-19.4-7.13-29.58a252.48,252.48,0,0,1-.82-26.34c2.16-.95,4.26-1.91,6.29-2.86,20.11-9.48,32.26-21.5,36.2-43.45,3.95,22,16.1,34,36.2,43.45,2,.95,4.14,1.91,6.3,2.86Zm2.42-92.18c-21.38,14.44-39.7,8-44.92-14.57-5.21,22.52-23.53,29-44.91,14.57l9.1,20.93a93.33,93.33,0,1,0,71.63,0ZM114.83,94.11l-5-11.65a44.62,44.62,0,0,0,7,2.36c11.33,2.61,21.76-.89,28.44-10.69a30.86,30.86,0,0,0,2.16-3.75,31.17,31.17,0,0,0,2.23,3.75c6.62,9.8,17.05,13.3,28.37,10.69a44.38,44.38,0,0,0,7-2.36l-5,11.65a93.48,93.48,0,0,0-32.58-5.86,92.1,92.1,0,0,0-32.57,5.86Zm55.35,147.46c19.28-14.63,38.62-39.5,41.16-64.31a54.75,54.75,0,0,1,7.76,5.59,33.48,33.48,0,0,1,5.79,6.24c-5.79,25.7-28.18,52.55-51.72,64.19a43.58,43.58,0,0,1-3-11.71Zm-3.24,2.3c1.27,8.14,4.7,16.35,10.43,22.33a89.75,89.75,0,0,1-59.93,0c5.79-6,9.16-14.19,10.43-22.33,7.38,4.89,15.08,7.82,19.53,7.82s12.16-2.93,19.54-7.82ZM145.62,101c-.76,29.77-7.5,46.25-35.88,59.61-12.21,5.72-26.21,10.81-36.32,19.59a37.06,37.06,0,0,0-13.05,23.48,84.26,84.26,0,0,1-1.91-9.86c-.44-9,1.09-16.93,4.65-23.73s9.35-12.47,17.37-17c20.86-11.84,41.41-12,56.87-34.93A75.13,75.13,0,0,0,145.62,101Zm39.51,59.61C156.69,147.23,150,130.75,149.19,101a72.72,72.72,0,0,0,8.33,17.11c15.4,22.9,35.94,23.09,56.81,34.93,8,4.58,13.74,10.24,17.37,17s5.09,14.76,4.64,23.73a80.31,80.31,0,0,1-1.91,9.86,37.27,37.27,0,0,0-13-23.48c-10.18-8.78-24.18-13.87-36.33-19.59Zm7.44,32.76a232.49,232.49,0,0,0,.83-25.13c5,2.23,10,4.52,14.63,7.06-1.27,17-10.94,33.79-21.88,46.45a100.7,100.7,0,0,0,6.42-28.38ZM216.05,150c-20.1-11.45-40.65-12-55.48-33.71a69.6,69.6,0,0,1-8.08-16.42c10.63,11.2,25.64,16.29,39.89,21.12,15.72,5.28,30.48,10.31,36.52,22.84a90.71,90.71,0,0,1,7.89,29c-.57-1.46-1.27-2.92-2-4.32C230.87,161,224.7,154.86,216.05,150Zm4.32-20.74c-7.44-5-17-8.27-26.84-11.57-16-5.48-33-11.2-42.94-25.83a89.68,89.68,0,0,1,69.78,37.4Zm-86.13-13C119.41,138,98.86,138.51,78.76,150c-8.65,4.9-14.82,11.07-18.7,18.52a36.89,36.89,0,0,0-2,4.32,90.71,90.71,0,0,1,7.89-29c6-12.53,20.8-17.56,36.52-22.84,14.25-4.83,29.26-9.92,39.88-21.12a69.6,69.6,0,0,1-8.07,16.42Zm10-24.43c-9.86,14.63-26.91,20.35-42.94,25.83-9.86,3.3-19.4,6.55-26.85,11.57a89.71,89.71,0,0,1,69.79-37.4Zm-42,101.53c.9,9.61,2.8,19.47,6.49,28.38-11-12.66-20.67-29.46-21.94-46.45,4.64-2.54,9.6-4.83,14.63-7.06a248.8,248.8,0,0,0,.82,25.13ZM83.47,177.26c2.54,24.81,21.88,49.68,41.16,64.31a43.58,43.58,0,0,1-3,11.71c-23.54-11.64-45.93-38.49-51.72-64.19a33.48,33.48,0,0,1,5.79-6.24,58.42,58.42,0,0,1,7.76-5.59Zm-16.16,16c7.12,25.52,29.14,51.54,52.87,63.24a34,34,0,0,1-6.3,8.4,90.37,90.37,0,0,1-48.67-47.08,30.9,30.9,0,0,1,2.1-24.56Zm107.32,63.24c23.73-11.7,45.74-37.72,52.87-63.24a30.9,30.9,0,0,1,2.1,24.56,90.17,90.17,0,0,1-48.67,47.08,34,34,0,0,1-6.3-8.4Z"/><path class="cls-3" d="M147.4,50.85a5.32,5.32,0,1,0-5.34-5.35,5.34,5.34,0,0,0,5.34,5.35Z"/><path class="cls-4" d="M197.79,72.73a5.35,5.35,0,1,0-5.34-5.34,5.37,5.37,0,0,0,5.34,5.34Z"/><path class="cls-5" d="M97,72.73a5.35,5.35,0,1,0-5.35-5.34A5.38,5.38,0,0,0,97,72.73Z"/><path class="cls-6" d="M117.69,169c-2.6,0-2.54-3,0-2.93a63.84,63.84,0,0,1,15.91,1.65c17.62,4.52,14.76,18.2,11.45,32.51-.76,3.25-3.37,9.16,1.34,10.05a14.43,14.43,0,0,0,5.85-.25c2.29-.45,3.31,2.42.51,2.93a18.77,18.77,0,0,1-6.94.25c-7.38-1.46-4.83-8.59-3.69-13.61,2.93-12.6,6.3-25-9.22-29A66.93,66.93,0,0,0,117.69,169Z"/><path class="cls-7" d="M185.63,183.46c-.64,1.52-1.29,2.09-2.28,2.38a3.51,3.51,0,0,0,1,4.26,4.36,4.36,0,0,1-3.63-3.49c-.77.19-2.05.47-2.81.59a3.74,3.74,0,0,0,.94,4.09c-1.94-.66-2.74-1.83-3.35-3.85-.89.06-2.22.07-3.11.07a7.06,7.06,0,0,0,1.54,4.73c-2.6-1-4.22-4.93-4.22-4.93-.95-.07-2-.26-2.93-.38,0,0-.81,2,1.77,5.33a7.2,7.2,0,0,1-4.59-6c-1.21-.32-3.94-1.78-4.81-3.27C168.18,185.29,175.69,186.35,185.63,183.46Z"/><path class="cls-8" d="M108.72,183.46c.64,1.52,1.3,2.09,2.29,2.38a3.51,3.51,0,0,1-1,4.26,4.37,4.37,0,0,0,3.63-3.49c.76.19,2,.47,2.81.59a3.73,3.73,0,0,1-.95,4.09c1.95-.66,2.75-1.83,3.36-3.85.89.06,2.21.07,3.1.07a7,7,0,0,1-1.53,4.73c2.6-1,4.22-4.93,4.22-4.93,1-.07,2-.26,2.92-.38,0,0,.82,2-1.77,5.33a7.2,7.2,0,0,0,4.6-6c1.21-.32,3.94-1.78,4.81-3.27A48.18,48.18,0,0,1,108.72,183.46Z"/><path class="cls-9" d="M137.86,226.24a1.34,1.34,0,0,1,1-2.48,23.54,23.54,0,0,0,17.43,0,1.34,1.34,0,0,1,1,2.48,25.73,25.73,0,0,1-19.47,0Z"/><path class="cls-10" d="M143.4,233.37c-1.59-.51-.64-2.55.95-2a10.48,10.48,0,0,0,6.55,0c1.53-.58,2.48,1.46,1,2a13.74,13.74,0,0,1-8.46,0Z"/></svg>