<svg xmlns="http://www.w3.org/2000/svg" viewBox="0 0 159.41 166.3"><defs><style>.cls-1{fill:#fff;}</style></defs><g id="Layer_2" data-name="Layer 2"><g id="Layer_1-2" data-name="Layer 1"><path class="cls-1" d="M79.71,22S18,6.44,18,83.35v46L141.4,151.79V83.35C141.4,3.78,79.71,22,79.71,22Z"/><path d="M141.4,153.6l-.32,0L17.68,131.1a1.82,1.82,0,0,1-1.49-1.79v-46c0-25.81,6.86-44.24,20.38-54.78,17.34-13.52,39.47-9.31,43.1-8.5,3.58-.95,25.37-6,42.68,7,13.85,10.36,20.87,29.31,20.87,56.33v68.44a1.81,1.81,0,0,1-.65,1.39A1.79,1.79,0,0,1,141.4,153.6ZM19.83,127.79l119.76,21.82V83.35c0-25.79-6.53-43.76-19.4-53.4-17-12.77-39.74-6.33-40-6.26a1.8,1.8,0,0,1-1,0c-.26-.06-23.38-5.62-40.49,7.75-12.58,9.82-19,27.28-19,51.89Z"/><path class="cls-1" d="M79.7,59S50,75.45,31.8,79.8c0,.75-.06,8.77-.06,9.53V96l3,29.32a45.26,45.26,0,0,0,45,39.2h0a45.27,45.27,0,0,0,45-39.2l3-29.32V89.33c0-.76,0-8.78-.06-9.53C109.43,75.45,79.7,59,79.7,59Z"/><path d="M79.71,166.3a47.21,47.21,0,0,1-46.82-40.78l-3-29.37a1.09,1.09,0,0,1,0-.18V89.33c0-.43,0-8.79.06-9.62A1.83,1.83,0,0,1,31.37,78C49.11,73.79,78.53,57.6,78.82,57.44a1.83,1.83,0,0,1,1.76,0c.3.16,29.73,16.35,47.46,20.59a1.81,1.81,0,0,1,1.39,1.68c0,.84.06,9.17.06,9.62V96a1.09,1.09,0,0,1,0,.18l-2.95,29.32A47.22,47.22,0,0,1,79.71,166.3ZM33.55,95.88l3,29.23a43.63,43.63,0,0,0,86.42-.06l2.94-29.17V89.33c0-.75,0-5.66,0-8.11C109.14,76.85,84.71,63.82,79.7,61.1c-5,2.72-29.43,15.75-46.11,20.12,0,2.45,0,7.36,0,8.11Z"/><path class="cls-1" d="M79.71,129.66a56.57,56.57,0,0,1-21.45-4,21.47,21.47,0,0,0,42.9,0A56.57,56.57,0,0,1,79.71,129.66Z"/><path d="M79.71,148.1a23.22,23.22,0,0,1-23.27-22.37A1.82,1.82,0,0,1,59,124a54.44,54.44,0,0,0,20.75,3.86A54.47,54.47,0,0,0,100.46,124a1.82,1.82,0,0,1,2.51,1.75A23.2,23.2,0,0,1,79.71,148.1ZM60.38,128.41a19.66,19.66,0,0,0,38.65,0,62.36,62.36,0,0,1-38.65,0Z"/><path class="cls-1" d="M142.8,99.12a5.34,5.34,0,0,1-5.34-5.33V70.24A57.76,57.76,0,0,0,22,70.24V93.46a5.34,5.34,0,1,1-10.67,0V70.24a68.43,68.43,0,0,1,136.85,0V93.79A5.33,5.33,0,0,1,142.8,99.12Z"/><path d="M142.8,100.94a7.16,7.16,0,0,1-7.16-7.15V70.24a55.94,55.94,0,1,0-111.87,0V93.46a7.15,7.15,0,1,1-14.3,0V70.24a70.24,70.24,0,0,1,140.48,0V93.79A7.16,7.16,0,0,1,142.8,100.94ZM79.71,10.67a59.64,59.64,0,0,1,59.57,59.57V93.79a3.52,3.52,0,1,0,7,0V70.24a66.61,66.61,0,1,0-133.21,0V93.46a3.52,3.52,0,1,0,7,0V70.24A59.63,59.63,0,0,1,79.71,10.67Z"/><path class="cls-1" d="M137.57,70h0a20,20,0,0,1,20,20v7.82a20,20,0,0,1-20,20h0a9.58,9.58,0,0,1-9.58-9.58V79.53A9.58,9.58,0,0,1,137.57,70Z"/><path d="M142.8,119.65h-7.73a8.9,8.9,0,0,1-8.89-8.89V77a8.9,8.9,0,0,1,8.89-8.9h7.73a16.64,16.64,0,0,1,16.61,16.62V103A16.63,16.63,0,0,1,142.8,119.65Zm-7.73-47.88A5.27,5.27,0,0,0,129.81,77v33.72a5.27,5.27,0,0,0,5.26,5.26h7.73a13,13,0,0,0,13-13V84.76a13,13,0,0,0-13-13Z"/><path class="cls-1" d="M113.12,146.14H102.55a3.59,3.59,0,0,1,0-7.17h10.57a26.11,26.11,0,0,0,26.09-26.09,3.59,3.59,0,0,1,7.17,0A33.3,33.3,0,0,1,113.12,146.14Z"/><path d="M113.12,148H102.55a5.4,5.4,0,1,1,0-10.8h10.57a24.3,24.3,0,0,0,24.28-24.27,5.4,5.4,0,0,1,10.8,0A35.12,35.12,0,0,1,113.12,148Zm-10.57-7.17a1.77,1.77,0,1,0,0,3.53h10.57a31.47,31.47,0,0,0,31.44-31.44,1.77,1.77,0,1,0-3.53,0,27.94,27.94,0,0,1-27.91,27.9Z"/><path class="cls-1" d="M96.64,151.73h0a9.17,9.17,0,0,1-9.17-9.17h0a9.16,9.16,0,0,1,9.17-9.17h0a9.17,9.17,0,0,1,9.17,9.17h0A9.18,9.18,0,0,1,96.64,151.73Z"/><path d="M96.64,153.54a11,11,0,1,1,11-11A11,11,0,0,1,96.64,153.54Zm0-18.34a7.36,7.36,0,1,0,7.35,7.36A7.37,7.37,0,0,0,96.64,135.2Z"/><path class="cls-1" d="M11.39,70h0a20,20,0,0,1,20,20v7.82a20,20,0,0,1-20,20h0a9.58,9.58,0,0,1-9.58-9.58V79.53A9.58,9.58,0,0,1,11.39,70Z" transform="translate(33.24 187.79) rotate(-180)"/><path d="M24.34,119.65H16.62A16.64,16.64,0,0,1,0,103V84.76A16.64,16.64,0,0,1,16.62,68.14h7.72a8.91,8.91,0,0,1,8.9,8.9v33.72A8.9,8.9,0,0,1,24.34,119.65ZM16.62,71.77a13,13,0,0,0-13,13V103a13,13,0,0,0,13,13h7.72a5.27,5.27,0,0,0,5.27-5.26V77a5.27,5.27,0,0,0-5.27-5.27Z"/><path d="M69.9,93.57A1.82,1.82,0,0,1,68.62,93a14.26,14.26,0,0,0-20.15,0,1.82,1.82,0,0,1-2.57-2.57,17.89,17.89,0,0,1,25.29,0,1.82,1.82,0,0,1,0,2.57A1.84,1.84,0,0,1,69.9,93.57Z"/><path d="M112.23,93.57a1.84,1.84,0,0,1-1.29-.53A14.24,14.24,0,0,0,90.8,93a1.82,1.82,0,0,1-2.57-2.57,17.9,17.9,0,0,1,25.28,0,1.82,1.82,0,0,1-1.28,3.1Z"/><path d="M85.53,120.86a1.82,1.82,0,0,1-1.28-.53,6.42,6.42,0,0,0-9.08,0,1.82,1.82,0,1,1-2.57-2.57,10.07,10.07,0,0,1,14.22,0,1.82,1.82,0,0,1,0,2.57A1.84,1.84,0,0,1,85.53,120.86Z"/><path d="M127.62,67.08a1.51,1.51,0,0,1-.42,0c-10-2.38-23.29-8.33-32.72-12.9a1.82,1.82,0,1,1,1.58-3.27c9.27,4.49,22.34,10.33,32,12.64a1.81,1.81,0,0,1-.42,3.58Z"/></g></g></svg>