<svg xmlns="http://www.w3.org/2000/svg" xmlns:xlink="http://www.w3.org/1999/xlink" viewBox="0 0 204.2 111.4"><defs><style>.cls-1{fill:none;}.cls-2{fill:#fff;}.cls-3{clip-path:url(#clip-path);}</style><clipPath id="clip-path"><rect class="cls-1" x="43.14" y="40.61" width="117.92" height="18.53"/></clipPath></defs><g id="Layer_2" data-name="Layer 2"><g id="Layer_1-2" data-name="Layer 1"><path class="cls-2" d="M146.74,59.26c13-13,13.63-34.24.79-47.4A33.38,33.38,0,0,0,102.1,9.65a33.38,33.38,0,0,0-45.43,2.21c-12.84,13.16-12.21,34.4.79,47.4L88.9,90.7a18.67,18.67,0,0,0,26.4,0Z"/><path d="M102.1,98a20.41,20.41,0,0,1-14.49-6L56.17,60.54C42.35,46.72,42,24.31,55.37,10.59A35.32,35.32,0,0,1,102.1,7.31a35.32,35.32,0,0,1,46.73,3.28c13.38,13.72,13,36.13-.81,50L116.59,92A20.41,20.41,0,0,1,102.1,98ZM80.6,3.63A31.54,31.54,0,0,0,58,13.13C46,25.43,46.32,45.55,58.74,58L90.18,89.41a16.86,16.86,0,0,0,23.84,0L145.45,58h0c12.43-12.43,12.78-32.55.78-44.85a31.66,31.66,0,0,0-43-2.1,1.79,1.79,0,0,1-2.34,0A31.47,31.47,0,0,0,80.6,3.63Z"/><path class="cls-2" d="M135.14,105.61a5.25,5.25,0,0,1,4-6.38l-11.75,2.46a5.39,5.39,0,0,1-6.4-3.86,5.26,5.26,0,0,1,4-6.38l-4.14.87a5.41,5.41,0,0,1-6.4-3.86,5.26,5.26,0,0,1,4-6.38l4.35-.91A5.25,5.25,0,0,1,116.63,77a5.41,5.41,0,0,1,4.31-6.11l31.45-6.59,6.71-1.41L146.49,55a6.33,6.33,0,0,1-2.05-8.72h0a6.34,6.34,0,0,1,8.73-2l9.46,5.88A68.74,68.74,0,0,0,185.5,59a21,21,0,0,1,16.36,15.91c2.64,11.48-5.1,23-16.63,25.37L161,105.39l-19.47,4.08A5.39,5.39,0,0,1,135.14,105.61Z"/><path d="M140.39,111.4a7.19,7.19,0,0,1-7-5.37h0a7,7,0,0,1,.12-3.76l-5.71,1.2a7.25,7.25,0,0,1-8.54-5.21,7.09,7.09,0,0,1,.2-4,7.18,7.18,0,0,1-6.7-5.37,7.06,7.06,0,0,1,3.86-8.06,7.05,7.05,0,0,1-1.75-3.55,7.23,7.23,0,0,1,5.72-8.21L154.29,62l-8.76-5.44a8.16,8.16,0,0,1,8.6-13.86l9.46,5.87a66.89,66.89,0,0,0,22.26,8.68,22.87,22.87,0,0,1,17.78,17.28,22.44,22.44,0,0,1-3.06,17.2,23.67,23.67,0,0,1-15,10.36l-43.69,9.16A7.91,7.91,0,0,1,140.39,111.4Zm-3.49-6.22a3.58,3.58,0,0,0,4.26,2.51l43.7-9.16a20,20,0,0,0,12.64-8.76,18.78,18.78,0,0,0,2.59-14.42,19.23,19.23,0,0,0-15-14.53,70.54,70.54,0,0,1-23.47-9.16l-9.46-5.87a4.52,4.52,0,0,0-4.77,7.68l12.62,7.83a1.82,1.82,0,0,1-.58,3.32l-38.16,8a3.58,3.58,0,0,0-2.9,4,3.49,3.49,0,0,0,1.46,2.25,3.4,3.4,0,0,0,2.63.51h0a1.82,1.82,0,0,1,.75,3.56h0l-4.35.91A3.43,3.43,0,0,0,116.27,88a3.57,3.57,0,0,0,4.26,2.51l4.13-.86h0a1.82,1.82,0,0,1,.74,3.56,3.43,3.43,0,0,0-2.63,4.17A3.57,3.57,0,0,0,127,99.91l11.74-2.46h0a1.82,1.82,0,0,1,.75,3.56,3.39,3.39,0,0,0-2.2,1.52,3.44,3.44,0,0,0-.44,2.65Z"/><line class="cls-2" x1="139.16" y1="99.23" x2="156.87" y2="95.52"/><path d="M139.16,101.05a1.82,1.82,0,0,1-.37-3.6l17.71-3.71a1.82,1.82,0,0,1,.75,3.56L139.54,101A2.45,2.45,0,0,1,139.16,101.05Z"/><line class="cls-2" x1="125.04" y1="91.45" x2="154.72" y2="85.23"/><path d="M125,93.27a1.82,1.82,0,0,1-.37-3.6l29.68-6.21a1.81,1.81,0,1,1,.74,3.55l-29.68,6.22A1.55,1.55,0,0,1,125,93.27Z"/><line class="cls-2" x1="122.88" y1="81.17" x2="152.56" y2="74.95"/><path d="M122.88,83a1.82,1.82,0,0,1-.37-3.6l29.68-6.22a1.82,1.82,0,0,1,.75,3.56L123.26,83A2.45,2.45,0,0,1,122.88,83Z"/><path class="cls-2" d="M69.06,105.61a5.24,5.24,0,0,0-4-6.38l11.76,2.46a5.4,5.4,0,0,0,6.4-3.86,5.26,5.26,0,0,0-4-6.38l4.14.87a5.41,5.41,0,0,0,6.4-3.86,5.26,5.26,0,0,0-4-6.38l-4.36-.91A5.24,5.24,0,0,0,87.56,77a5.39,5.39,0,0,0-4.31-6.11L51.81,64.25l-6.72-1.41L57.71,55a6.33,6.33,0,0,0,2-8.72h0a6.33,6.33,0,0,0-8.72-2l-9.47,5.88A68.6,68.6,0,0,1,18.7,59,21,21,0,0,0,2.34,74.94C-.3,86.42,7.44,97.89,19,100.31l24.22,5.08,19.47,4.08A5.4,5.4,0,0,0,69.06,105.61Z"/><path d="M63.8,111.4a7.81,7.81,0,0,1-1.51-.15L18.6,102.09a23.67,23.67,0,0,1-15-10.36A22.36,22.36,0,0,1,.57,74.53,22.87,22.87,0,0,1,18.35,57.25a66.89,66.89,0,0,0,22.26-8.68l9.46-5.87a8.16,8.16,0,0,1,8.6,13.86L49.91,62l33.72,7.06a7.23,7.23,0,0,1,5.72,8.21,7,7,0,0,1-1.76,3.55,7,7,0,0,1,3.87,8.06,7.18,7.18,0,0,1-6.71,5.37,6.92,6.92,0,0,1,.2,4,7.22,7.22,0,0,1-8.53,5.21l-5.71-1.2a7.05,7.05,0,0,1,.12,3.76A7.19,7.19,0,0,1,63.8,111.4ZM54.36,45.11a4.52,4.52,0,0,0-2.38.68l-9.46,5.87a70.49,70.49,0,0,1-23.46,9.16A19.21,19.21,0,0,0,4.11,75.35,18.77,18.77,0,0,0,6.69,89.77a20,20,0,0,0,12.65,8.76L63,107.69a3.58,3.58,0,0,0,4.26-2.51h0a3.44,3.44,0,0,0-.44-2.65,3.39,3.39,0,0,0-2.2-1.52,1.82,1.82,0,0,1,.75-3.56h0l11.75,2.46a3.58,3.58,0,0,0,4.26-2.51,3.43,3.43,0,0,0-2.63-4.17,1.81,1.81,0,0,1-1.41-2.15,1.83,1.83,0,0,1,2.15-1.41h0l4.13.86A3.57,3.57,0,0,0,87.93,88a3.41,3.41,0,0,0-.44-2.64,3.37,3.37,0,0,0-2.2-1.53L80.94,83h0a1.82,1.82,0,0,1,.75-3.56h0a3.37,3.37,0,0,0,2.62-.51,3.46,3.46,0,0,0,1.47-2.25,3.58,3.58,0,0,0-2.9-4l-38.16-8a1.82,1.82,0,0,1-.58-3.32l12.61-7.83a4.49,4.49,0,0,0,2-2.81,4.44,4.44,0,0,0-.56-3.41,4.48,4.48,0,0,0-2.81-2A4.61,4.61,0,0,0,54.36,45.11Z"/><line class="cls-2" x1="65.03" y1="99.23" x2="47.32" y2="95.52"/><path d="M65,101.05a2.45,2.45,0,0,1-.38,0L47,97.3a1.82,1.82,0,1,1,.75-3.56l17.71,3.71a1.82,1.82,0,0,1-.37,3.6Z"/><line class="cls-2" x1="79.16" y1="91.45" x2="49.48" y2="85.23"/><path d="M79.16,93.27a1.55,1.55,0,0,1-.37,0L49.11,87a1.81,1.81,0,1,1,.74-3.55l29.68,6.21a1.82,1.82,0,0,1-.37,3.6Z"/><line class="cls-2" x1="81.31" y1="81.17" x2="51.63" y2="74.95"/><path d="M81.32,83a2.45,2.45,0,0,1-.38,0L51.26,76.73A1.82,1.82,0,1,1,52,73.17l29.68,6.22a1.82,1.82,0,0,1-.37,3.6Z"/><g class="cls-3"><path class="cls-2" d="M146.74,59.26c13-13,13.63-34.24.79-47.4A33.38,33.38,0,0,0,102.1,9.65a33.38,33.38,0,0,0-45.43,2.21c-12.84,13.16-12.21,34.4.79,47.4L88.9,90.7a18.67,18.67,0,0,0,26.4,0Z"/><path d="M102.1,98a20.41,20.41,0,0,1-14.49-6L56.17,60.54C42.35,46.72,42,24.31,55.37,10.59A35.32,35.32,0,0,1,102.1,7.31a35.32,35.32,0,0,1,46.73,3.28c13.38,13.72,13,36.13-.81,50L116.59,92A20.41,20.41,0,0,1,102.1,98ZM80.6,3.63A31.54,31.54,0,0,0,58,13.13C46,25.43,46.32,45.55,58.74,58L90.18,89.41a16.86,16.86,0,0,0,23.84,0L145.45,58h0c12.43-12.43,12.78-32.55.78-44.85a31.66,31.66,0,0,0-43-2.1,1.79,1.79,0,0,1-2.34,0A31.47,31.47,0,0,0,80.6,3.63Z"/></g><path d="M133.23,62.81A2.21,2.21,0,0,1,131.67,59l11.87-11.87a2.22,2.22,0,0,1,3.13,3.14L134.8,62.17A2.21,2.21,0,0,1,133.23,62.81Z"/></g></g></svg>