<svg xmlns="http://www.w3.org/2000/svg" xmlns:xlink="http://www.w3.org/1999/xlink" viewBox="0 0 168.47 175.48"><defs><style>.cls-1{fill:none;}.cls-2{fill:#fff;}.cls-3{clip-path:url(#clip-path);}.cls-4{clip-path:url(#clip-path-2);}</style><clipPath id="clip-path"><rect class="cls-1" x="40.87" y="123.63" width="37.21" height="27.16"/></clipPath><clipPath id="clip-path-2"><rect class="cls-1" x="90.16" y="123.63" width="37.21" height="27.16"/></clipPath></defs><g id="Layer_2" data-name="Layer 2"><g id="Layer_1-2" data-name="Layer 1"><path class="cls-2" d="M51.47,173.66H24.68a22.87,22.87,0,0,1,0-45.73H51.47a22.87,22.87,0,0,1,0,45.73ZM24.68,141.11a9.69,9.69,0,0,0,0,19.38H51.47a9.69,9.69,0,0,0,0-19.38Z"/><path d="M51.47,175.48H24.68a24.69,24.69,0,0,1,0-49.37H51.47a24.69,24.69,0,0,1,0,49.37ZM24.68,129.75a21.05,21.05,0,1,0,0,42.1H51.47a21.05,21.05,0,0,0,0-42.1ZM51.47,162.3H24.68a11.51,11.51,0,0,1,0-23H51.47a11.51,11.51,0,0,1,0,23ZM24.68,142.92a7.88,7.88,0,0,0,0,15.75H51.47a7.88,7.88,0,0,0,0-15.75Z"/><path class="cls-2" d="M97.63,173.66H70.84a22.87,22.87,0,0,1,0-45.73H97.63a22.87,22.87,0,0,1,0,45.73ZM70.84,141.11a9.69,9.69,0,0,0,0,19.38H97.63a9.69,9.69,0,0,0,0-19.38Z"/><path d="M97.63,175.48H70.84a24.69,24.69,0,0,1,0-49.37H97.63a24.69,24.69,0,0,1,0,49.37ZM70.84,129.75a21.05,21.05,0,0,0,0,42.1H97.63a21.05,21.05,0,0,0,0-42.1ZM97.63,162.3H70.84a11.51,11.51,0,0,1,0-23H97.63a11.51,11.51,0,0,1,0,23ZM70.84,142.92a7.88,7.88,0,0,0,0,15.75H97.63a7.88,7.88,0,0,0,0-15.75Z"/><path class="cls-2" d="M143.79,173.66H117a22.87,22.87,0,0,1,0-45.73h26.79a22.87,22.87,0,0,1,0,45.73ZM117,141.11a9.69,9.69,0,0,0,0,19.38h26.79a9.69,9.69,0,0,0,0-19.38Z"/><path d="M143.79,175.48H117a24.69,24.69,0,0,1,0-49.37h26.79a24.69,24.69,0,0,1,0,49.37ZM117,129.75a21.05,21.05,0,0,0,0,42.1h26.79a21,21,0,1,0,0-42.1Zm26.79,32.55H117a11.51,11.51,0,0,1,0-23h26.79a11.51,11.51,0,0,1,0,23ZM117,142.92a7.88,7.88,0,0,0,0,15.75h26.79a7.88,7.88,0,0,0,0-15.75Z"/><g class="cls-3"><path class="cls-2" d="M51.47,173.66H24.68a22.87,22.87,0,0,1,0-45.73H51.47a22.87,22.87,0,0,1,0,45.73ZM24.68,141.11a9.69,9.69,0,0,0,0,19.38H51.47a9.69,9.69,0,0,0,0-19.38Z"/><path d="M51.47,175.48H24.68a24.69,24.69,0,0,1,0-49.37H51.47a24.69,24.69,0,0,1,0,49.37ZM24.68,129.75a21.05,21.05,0,1,0,0,42.1H51.47a21.05,21.05,0,0,0,0-42.1ZM51.47,162.3H24.68a11.51,11.51,0,0,1,0-23H51.47a11.51,11.51,0,0,1,0,23ZM24.68,142.92a7.88,7.88,0,0,0,0,15.75H51.47a7.88,7.88,0,0,0,0-15.75Z"/></g><g class="cls-4"><path class="cls-2" d="M97.63,173.66H70.84a22.87,22.87,0,0,1,0-45.73H97.63a22.87,22.87,0,0,1,0,45.73ZM70.84,141.11a9.69,9.69,0,0,0,0,19.38H97.63a9.69,9.69,0,0,0,0-19.38Z"/><path d="M97.63,175.48H70.84a24.69,24.69,0,0,1,0-49.37H97.63a24.69,24.69,0,0,1,0,49.37ZM70.84,129.75a21.05,21.05,0,0,0,0,42.1H97.63a21.05,21.05,0,0,0,0-42.1ZM97.63,162.3H70.84a11.51,11.51,0,0,1,0-23H97.63a11.51,11.51,0,0,1,0,23ZM70.84,142.92a7.88,7.88,0,0,0,0,15.75H97.63a7.88,7.88,0,0,0,0-15.75Z"/></g><path class="cls-2" d="M84.23,1.82,26.9,14.64v37a88.94,88.94,0,0,0,57.33,83.13h0a88.94,88.94,0,0,0,57.34-83.13v-37Z"/><path d="M84.23,136.57a1.81,1.81,0,0,1-.64-.12A90.78,90.78,0,0,1,25.08,51.62v-37a1.81,1.81,0,0,1,1.42-1.77L83.84,0a2.1,2.1,0,0,1,.79,0L142,12.87a1.81,1.81,0,0,1,1.42,1.77v37a90.78,90.78,0,0,1-58.51,84.83A1.82,1.82,0,0,1,84.23,136.57ZM28.71,16.1V51.62a87.16,87.16,0,0,0,55.52,81.19,87.12,87.12,0,0,0,55.52-81.19V16.1L84.23,3.68Z"/><path class="cls-2" d="M73.59,97.32a11.8,11.8,0,0,1-8.39-3.48L51.71,80.35A11.87,11.87,0,1,1,68.49,63.57l5.15,5.15,26.39-26a11.87,11.87,0,1,1,16.68,16.9L81.93,93.9A11.85,11.85,0,0,1,73.59,97.32Z"/><path d="M73.59,99.14a13.63,13.63,0,0,1-9.68-4L50.42,81.64A13.69,13.69,0,0,1,69.78,62.28l3.87,3.88,25.1-24.78A13.69,13.69,0,1,1,118,60.86L83.21,95.19A13.61,13.61,0,0,1,73.59,99.14ZM60.1,61.91A10.06,10.06,0,0,0,53,79.07L66.48,92.56a10.07,10.07,0,0,0,14.17,0l34.78-34.33A10.05,10.05,0,0,0,101.31,44L74.92,70a1.81,1.81,0,0,1-2.56,0l-5.15-5.15A10,10,0,0,0,60.1,61.91Z"/><line class="cls-2" x1="84.23" y1="1.82" x2="84.23" y2="48.7"/><path d="M84.23,50.52a1.81,1.81,0,0,1-1.81-1.82V1.82a1.82,1.82,0,1,1,3.63,0V48.7A1.81,1.81,0,0,1,84.23,50.52Z"/><line class="cls-2" x1="84.23" y1="134.75" x2="84.23" y2="98.97"/><path d="M84.23,136.57a1.81,1.81,0,0,1-1.81-1.82V99a1.82,1.82,0,0,1,3.63,0v35.78A1.81,1.81,0,0,1,84.23,136.57Z"/><line class="cls-2" x1="99.01" y1="90.93" x2="117.83" y2="72.1"/><path d="M99,92.75a1.84,1.84,0,0,1-1.29-.53,1.82,1.82,0,0,1,0-2.57l18.83-18.83a1.82,1.82,0,1,1,2.57,2.57L100.29,92.22A1.82,1.82,0,0,1,99,92.75Z"/><line class="cls-2" x1="95.99" y1="105.01" x2="114.82" y2="86.18"/><path d="M96,106.82a1.76,1.76,0,0,1-1.28-.53,1.82,1.82,0,0,1,0-2.57L113.53,84.9a1.82,1.82,0,0,1,2.57,2.57L97.27,106.29A1.78,1.78,0,0,1,96,106.82Z"/></g></g></svg>