<svg xmlns="http://www.w3.org/2000/svg" viewBox="0 0 472.98 147.91"><defs><style>.cls-1{fill:#fff;}</style></defs><g id="Layer_2" data-name="Layer 2"><g id="Layer_1-2" data-name="Layer 1"><path class="cls-1" d="M0,116.18l1.36-10.5H33.49l1.36,10.5h-.47c-1.59-6.31-6.72-10-11.91-10H20.29V140.3c0,3.77,1.59,6.07,4,6.07h.06V147H10.56v-.59h0c2.42,0,4-2.3,4-6.07V106.22H12.38c-5.19,0-9.55,3.83-11.91,10Z"/><path class="cls-1" d="M37.15,126.32c0-10.61,7.14-21.22,21.47-21.22,14.8,0,22.05,10.49,22.05,21.05s-7.43,21.4-22.05,21.4C44.29,147.55,37.15,136.94,37.15,126.32Zm5.49-3.12c0,11,6.72,23.53,18,23.53,10.32,0,14.68-8.2,14.68-17,0-11-7.25-23.83-19-23.83C46.76,105.86,42.64,114.29,42.64,123.2Zm16.21,10.2h-.41v-3c0-2.36-1.36-3.89-3.48-3.89h-.35v-.35H55c2.12,0,3.48-1.6,3.48-3.89v-3h.41v3c0,2.29,1.42,3.89,3.48,3.89H63v.35h-.65c-2.06,0-3.48,1.53-3.48,3.89Z"/><path class="cls-1" d="M83.38,106.27v-.59H98.66c20.52,0,21.64,16,8,19.35l12.85,17.63c1,1.3,2.83,3.71,4.6,3.71H124V147h-8l-14.81-21.28h-8V140.3c0,3.77,1.66,6.07,4.07,6.07h.06V147H83.38v-.59h.06c2.42,0,4.07-2.3,4.07-6.07v-28c0-3.78-1.65-6.08-4.07-6.08Zm17.75,18.87c9.73,0,15.34-19-2.47-19H93.11v19Z"/><path class="cls-1" d="M133.8,139a5.07,5.07,0,0,0-.58,2.18c0,2,.76,5.19,3.71,5.19h.3V147h-12v-.59c2.78,0,6.14-3.48,7.2-5.78l3-6.48h-4.19v-.53h4.42l10.85-23.83-1.77-4.07h6.08l16.1,37c.64,1.47,2.71,3.71,4.42,3.71V147h-12.8v-.59h.18c1.47,0,2-.76,2-1.82a6.55,6.55,0,0,0-.64-2.66l-13.39-31.61-10.5,23.3h16.16v.53H136Z"/><path class="cls-1" d="M176,140.3v-28c0-3.78-1.59-6.08-4.07-6.08v-.59h13.74v.59c-2.48,0-4.07,2.3-4.07,6.08v34.08h11.91c5.37,0,9.73-8.55,10.79-14h.36L202.56,147H171.9v-.59C174.38,146.37,176,144.07,176,140.3Z"/><path class="cls-1" d="M229.1,114.82l2-9.14h22.58v.77l.36,30.14c0,7.07-5.84,11-14,11s-12.56-4.66-12.56-8.61c0-4.42,5.42-5.19,5.42.06,0,3.89,2.36,7.85,7.08,7.85,5,0,8.2-3.31,8.2-7.79L248,106.22h-8.55c-5.43,0-8.37,3.36-10,8.6Z"/><path class="cls-1" d="M290.78,132.46,288.72,147H258.06v-.59c2.47,0,4.07-2.3,4.07-6.07v-28c0-3.78-1.6-6.08-4.07-6.08v-.59h29.13l2,9.14h-.35c-1.65-5.24-4.6-8.6-10-8.6H267.73v19.16h17v.47h-17v20.58h11.91c5.36,0,9.73-8.55,10.79-14Z"/><path class="cls-1" d="M333.07,105.68l-5.9,13,10,23.7,13-28.71a6,6,0,0,0,.53-2.24c0-2-.77-5.19-3.72-5.19h-.23v-.54h11.91v.54c-2.71,0-6.13,3.53-7.2,5.77l-14,30.85,1.71,4.12h-6l-9.2-21.17-7.79,17,1.71,4.12h-6l-16.1-37c-.71-1.47-2.71-3.77-4.48-3.77v-.48h12.85v.54h-.17c-1.54,0-2.07.82-2.07,1.88a7.25,7.25,0,0,0,.71,2.66l13.33,31.6,7.72-17.16-8.49-19.52h6.54L326.87,118l5.61-12.33Z"/><path class="cls-1" d="M391.86,132.46,389.8,147H359.13v-.59c2.48,0,4.07-2.3,4.07-6.07v-28c0-3.78-1.59-6.08-4.07-6.08v-.59h29.13l2,9.14h-.36c-1.65-5.24-4.6-8.6-10-8.6H368.8v19.16h17v.47h-17v20.58h11.91c5.37,0,9.73-8.55,10.8-14Z"/><path class="cls-1" d="M396.87,140.3v-28c0-3.78-1.59-6.08-4.06-6.08v-.59h13.73v.59c-2.47,0-4.06,2.3-4.06,6.08v34.08h11.91c5.36,0,9.73-8.55,10.79-14h.35L423.47,147H392.81v-.59C395.28,146.37,396.87,144.07,396.87,140.3Z"/><path class="cls-1" d="M433.85,113.7c0,11.27,29.07,11.74,29.07,23.53,0,7-8.43,10.68-16.92,10.68s-17.34-3.84-17.34-12h.53c0,7.78,8.32,11.08,16.1,11.08,6.84,0,13.33-2.53,13.33-6.78,0-11.09-28.43-10.26-28.43-23.82,0-8,7.49-11.38,15.1-11.38,16.86,0,17.87,14.44,12,14.44a2.3,2.3,0,0,1-2.36-2.41c0-6.73-3.48-11.27-11.09-11.27C438.68,105.8,433.85,108.63,433.85,113.7Z"/><path class="cls-1" d="M230.72,89.37A44.69,44.69,0,1,1,275.4,44.69,44.74,44.74,0,0,1,230.72,89.37Zm0-85a40.32,40.32,0,1,0,40.33,40.32A40.36,40.36,0,0,0,230.72,4.37Z"/><path class="cls-1" d="M232.08,6.9a1.41,1.41,0,1,1-1.39-1.4A1.4,1.4,0,0,1,232.08,6.9Z"/><path class="cls-1" d="M228.77,6.94a1.36,1.36,0,0,1-1.27,1.49A1.39,1.39,0,0,1,226,7.17a1.42,1.42,0,0,1,1.29-1.51A1.36,1.36,0,0,1,228.77,6.94Z"/><path class="cls-1" d="M225.49,7.24a1.4,1.4,0,1,1-2.75.48A1.42,1.42,0,0,1,223.9,6.1,1.38,1.38,0,0,1,225.49,7.24Z"/><path class="cls-1" d="M222.24,7.84a1.36,1.36,0,0,1-1,1.71,1.39,1.39,0,0,1-1.69-1,1.43,1.43,0,0,1,1-1.72A1.37,1.37,0,0,1,222.24,7.84Z"/><path class="cls-1" d="M219.07,8.73a1.4,1.4,0,0,1-2.63.95,1.44,1.44,0,0,1,.85-1.8A1.36,1.36,0,0,1,219.07,8.73Z"/><path class="cls-1" d="M216,9.88a1.4,1.4,0,1,1-2.55,1.17,1.44,1.44,0,0,1,.67-1.86A1.4,1.4,0,0,1,216,9.88Z"/><path class="cls-1" d="M213,11.3a1.4,1.4,0,1,1-1.94-.53A1.41,1.41,0,0,1,213,11.3Z"/><path class="cls-1" d="M210.18,13a1.4,1.4,0,0,1-.38,1.94,1.37,1.37,0,0,1-1.93-.35A1.4,1.4,0,0,1,210.18,13Z"/><path class="cls-1" d="M207.48,14.88a1.39,1.39,0,0,1-.18,2,1.39,1.39,0,1,1-1.78-2.13A1.35,1.35,0,0,1,207.48,14.88Z"/><path class="cls-1" d="M205,17a1.4,1.4,0,0,1-2,2,1.43,1.43,0,0,1,0-2A1.34,1.34,0,0,1,205,17Z"/><path class="cls-1" d="M202.65,19.38a1.39,1.39,0,1,1-1.81,2.11,1.41,1.41,0,0,1-.15-2A1.33,1.33,0,0,1,202.65,19.38Z"/><path class="cls-1" d="M200.57,21.91a1.42,1.42,0,0,1,.32,2,1.38,1.38,0,0,1-2,.32,1.41,1.41,0,0,1-.32-1.94A1.36,1.36,0,0,1,200.57,21.91Z"/><path class="cls-1" d="M198.67,24.62a1.38,1.38,0,0,1,.51,1.9,1.36,1.36,0,0,1-1.91.52,1.42,1.42,0,0,1-.49-1.9A1.32,1.32,0,0,1,198.67,24.62Z"/><path class="cls-1" d="M197.05,27.49a1.4,1.4,0,0,1,.68,1.85,1.35,1.35,0,0,1-1.87.67,1.41,1.41,0,0,1-.66-1.85A1.35,1.35,0,0,1,197.05,27.49Z"/><path class="cls-1" d="M195.68,30.48a1.42,1.42,0,0,1,.83,1.8,1.36,1.36,0,0,1-1.81.83,1.42,1.42,0,0,1-.8-1.79A1.35,1.35,0,0,1,195.68,30.48Z"/><path class="cls-1" d="M194.56,33.59a1.44,1.44,0,0,1,1,1.72,1.37,1.37,0,0,1-1.75,1,1.43,1.43,0,0,1-.93-1.73A1.33,1.33,0,0,1,194.56,33.59Z"/><path class="cls-1" d="M193.73,36.79a1.37,1.37,0,0,1,1.13,1.62,1.34,1.34,0,0,1-1.64,1.12,1.42,1.42,0,0,1-1.07-1.64A1.3,1.3,0,0,1,193.73,36.79Z"/><path class="cls-1" d="M193.2,40.05a1.42,1.42,0,0,1,1.28,1.52,1.37,1.37,0,0,1-1.55,1.25,1.43,1.43,0,0,1-1.23-1.56A1.31,1.31,0,0,1,193.2,40.05Z"/><path class="cls-1" d="M192.93,43.33a1.41,1.41,0,0,1,1.39,1.4,1.35,1.35,0,0,1-1.42,1.39,1.43,1.43,0,0,1-1.36-1.44A1.35,1.35,0,0,1,192.93,43.33Z"/><path class="cls-1" d="M193,46.64a1.42,1.42,0,0,1,1.53,1.29,1.36,1.36,0,0,1-1.31,1.48,1.41,1.41,0,0,1-1.47-1.32A1.32,1.32,0,0,1,193,46.64Z"/><path class="cls-1" d="M193.27,49.92a1.42,1.42,0,0,1,1.63,1.15,1.35,1.35,0,0,1-1.19,1.59,1.4,1.4,0,0,1-1.56-1.18A1.31,1.31,0,0,1,193.27,49.92Z"/><path class="cls-1" d="M193.87,53.17a1.41,1.41,0,0,1,1.72,1,1.33,1.33,0,0,1-1,1.67,1.39,1.39,0,0,1-1.68-1A1.33,1.33,0,0,1,193.87,53.17Z"/><path class="cls-1" d="M194.75,56.34a1.45,1.45,0,0,1,1.81.85,1.37,1.37,0,0,1-.9,1.77,1.4,1.4,0,0,1-1.76-.89A1.32,1.32,0,0,1,194.75,56.34Z"/><path class="cls-1" d="M195.9,59.43a1.45,1.45,0,0,1,1.9.69,1.39,1.39,0,0,1-.75,1.85,1.46,1.46,0,0,1-1.85-.74A1.34,1.34,0,0,1,195.9,59.43Z"/><path class="cls-1" d="M197.3,62.41a1.48,1.48,0,0,1,2,.53,1.37,1.37,0,0,1-.61,1.89,1.39,1.39,0,0,1-1.88-.59A1.31,1.31,0,0,1,197.3,62.41Z"/><path class="cls-1" d="M199,65.25a1.44,1.44,0,0,1,2,.36,1.33,1.33,0,0,1-.42,1.93,1.38,1.38,0,0,1-1.93-.41A1.34,1.34,0,0,1,199,65.25Z"/><path class="cls-1" d="M200.89,68a1.43,1.43,0,0,1,2,.18,1.35,1.35,0,0,1-.27,2,1.38,1.38,0,0,1-1.95-.24A1.34,1.34,0,0,1,200.89,68Z"/><path class="cls-1" d="M203,70.45a1.47,1.47,0,0,1,2,0,1.4,1.4,0,0,1-2.06,1.9A1.32,1.32,0,0,1,203,70.45Z"/><path class="cls-1" d="M205.38,72.77a1.47,1.47,0,0,1,2-.17,1.4,1.4,0,0,1-1.9,2.05A1.31,1.31,0,0,1,205.38,72.77Z"/><path class="cls-1" d="M207.92,74.87a1.48,1.48,0,0,1,2-.33,1.39,1.39,0,1,1-1.73,2.18A1.3,1.3,0,0,1,207.92,74.87Z"/><path class="cls-1" d="M210.63,76.75a1.45,1.45,0,0,1,2-.5,1.34,1.34,0,0,1,.4,1.92,1.4,1.4,0,0,1-2,.41A1.34,1.34,0,0,1,210.63,76.75Z"/><path class="cls-1" d="M213.5,78.38a1.53,1.53,0,0,1,1.94-.71,1.36,1.36,0,0,1,.56,1.89,1.37,1.37,0,0,1-1.89.6A1.34,1.34,0,0,1,213.5,78.38Z"/><path class="cls-1" d="M216.49,79.75a1.5,1.5,0,0,1,1.87-.86,1.4,1.4,0,1,1-1.1,2.57A1.33,1.33,0,0,1,216.49,79.75Z"/><path class="cls-1" d="M219.61,80.85a1.51,1.51,0,0,1,1.78-1,1.41,1.41,0,1,1-.88,2.67A1.32,1.32,0,0,1,219.61,80.85Z"/><path class="cls-1" d="M222.81,81.67a1.53,1.53,0,0,1,1.68-1.17,1.41,1.41,0,0,1,1.06,1.71,1.43,1.43,0,0,1-1.69,1.05A1.36,1.36,0,0,1,222.81,81.67Z"/><path class="cls-1" d="M226.06,82.22a1.5,1.5,0,0,1,1.58-1.3,1.39,1.39,0,0,1,1.2,1.57,1.42,1.42,0,0,1-1.61,1.21A1.35,1.35,0,0,1,226.06,82.22Z"/><path class="cls-1" d="M229.35,82.49A1.53,1.53,0,0,1,230.81,81a1.41,1.41,0,0,1,1.32,1.49,1.38,1.38,0,0,1-1.48,1.32A1.32,1.32,0,0,1,229.35,82.49Z"/><path class="cls-1" d="M232.65,82.46A1.52,1.52,0,0,1,234,80.9a1.4,1.4,0,0,1,1.46,1.34,1.37,1.37,0,0,1-1.37,1.46A1.33,1.33,0,0,1,232.65,82.46Z"/><path class="cls-1" d="M235.94,82.16a1.5,1.5,0,0,1,1.18-1.68,1.41,1.41,0,0,1,.34,2.8A1.36,1.36,0,0,1,235.94,82.16Z"/><path class="cls-1" d="M239.19,81.54a1.51,1.51,0,0,1,1-1.77,1.42,1.42,0,0,1,1.66,1.1,1.38,1.38,0,0,1-1.06,1.66A1.34,1.34,0,0,1,239.19,81.54Z"/><path class="cls-1" d="M242.41,80.68a1.48,1.48,0,0,1,.83-1.86,1.44,1.44,0,0,1,1.76.93,1.4,1.4,0,0,1-.93,1.75A1.29,1.29,0,0,1,242.41,80.68Z"/><path class="cls-1" d="M245.47,79.53a1.49,1.49,0,0,1,.7-1.93,1.43,1.43,0,0,1,1.83.78,1.37,1.37,0,0,1-.78,1.81A1.31,1.31,0,0,1,245.47,79.53Z"/><path class="cls-1" d="M248.46,78.11a1.5,1.5,0,0,1,.5-2,1.44,1.44,0,0,1,1.92.61,1.36,1.36,0,0,1-.61,1.87A1.32,1.32,0,0,1,248.46,78.11Z"/><path class="cls-1" d="M251.3,76.45a1.52,1.52,0,0,1,.36-2,1.41,1.41,0,0,1,1.93.45,1.37,1.37,0,0,1-.43,1.92A1.33,1.33,0,0,1,251.3,76.45Z"/><path class="cls-1" d="M254,74.52a1.5,1.5,0,0,1,.17-2,1.41,1.41,0,0,1,1.71,2.24A1.33,1.33,0,0,1,254,74.52Z"/><path class="cls-1" d="M256.5,72.38a1.51,1.51,0,0,1,0-2.06,1.41,1.41,0,0,1,1.88,2.1A1.33,1.33,0,0,1,256.5,72.38Z"/><path class="cls-1" d="M258.8,70a1.52,1.52,0,0,1-.15-2,1.35,1.35,0,0,1,2,0,1.37,1.37,0,0,1,.08,2A1.34,1.34,0,0,1,258.8,70Z"/><path class="cls-1" d="M260.9,67.47a1.54,1.54,0,0,1-.34-2,1.37,1.37,0,0,1,2-.19,1.39,1.39,0,0,1,.27,2A1.34,1.34,0,0,1,260.9,67.47Z"/><path class="cls-1" d="M262.78,64.75a1.5,1.5,0,0,1-.52-2,1.38,1.38,0,0,1,2-.36,1.41,1.41,0,0,1,.43,1.92A1.35,1.35,0,0,1,262.78,64.75Z"/><path class="cls-1" d="M264.41,61.88a1.51,1.51,0,0,1-.68-1.93,1.33,1.33,0,0,1,1.88-.52,1.36,1.36,0,0,1,.6,1.87A1.33,1.33,0,0,1,264.41,61.88Z"/><path class="cls-1" d="M265.78,58.87a1.52,1.52,0,0,1-.86-1.85,1.35,1.35,0,0,1,1.84-.69,1.39,1.39,0,0,1,.77,1.83A1.32,1.32,0,0,1,265.78,58.87Z"/><path class="cls-1" d="M266.88,55.78a1.52,1.52,0,0,1-1-1.77,1.37,1.37,0,0,1,1.78-.88,1.42,1.42,0,0,1,.91,1.76A1.33,1.33,0,0,1,266.88,55.78Z"/><path class="cls-1" d="M267.7,52.58a1.53,1.53,0,0,1-1.16-1.68,1.38,1.38,0,0,1,1.7-1,1.44,1.44,0,0,1,1.08,1.67A1.34,1.34,0,0,1,267.7,52.58Z"/><path class="cls-1" d="M268.24,49.32A1.52,1.52,0,0,1,267,47.74a1.36,1.36,0,0,1,1.61-1.14,1.45,1.45,0,0,1,1.22,1.56A1.36,1.36,0,0,1,268.24,49.32Z"/><path class="cls-1" d="M268.51,46a1.51,1.51,0,0,1-1.42-1.48,1.35,1.35,0,0,1,1.49-1.27,1.42,1.42,0,0,1,1.34,1.46A1.35,1.35,0,0,1,268.51,46Z"/><path class="cls-1" d="M268.49,42.73a1.54,1.54,0,0,1-1.57-1.33A1.38,1.38,0,0,1,268.31,40a1.47,1.47,0,0,1,1.47,1.35A1.33,1.33,0,0,1,268.49,42.73Z"/><path class="cls-1" d="M268.19,39.45a1.55,1.55,0,0,1-1.7-1.2,1.37,1.37,0,0,1,1.27-1.5,1.43,1.43,0,0,1,1.58,1.18A1.34,1.34,0,0,1,268.19,39.45Z"/><path class="cls-1" d="M267.58,36.22a1.55,1.55,0,0,1-1.78-1.07,1.35,1.35,0,0,1,1.12-1.6,1.45,1.45,0,0,1,1.69,1A1.35,1.35,0,0,1,267.58,36.22Z"/><path class="cls-1" d="M266.7,33a1.52,1.52,0,0,1-1.87-.92,1.35,1.35,0,0,1,1-1.68,1.43,1.43,0,0,1,1.78.89A1.33,1.33,0,0,1,266.7,33Z"/><path class="cls-1" d="M265.55,29.93a1.51,1.51,0,0,1-1.94-.74,1.35,1.35,0,0,1,.83-1.77,1.43,1.43,0,0,1,1.83.74A1.32,1.32,0,0,1,265.55,29.93Z"/><path class="cls-1" d="M264.14,27a1.53,1.53,0,0,1-2-.57,1.36,1.36,0,0,1,.66-1.83,1.43,1.43,0,0,1,1.9.57A1.34,1.34,0,0,1,264.14,27Z"/><path class="cls-1" d="M262.46,24.1a1.52,1.52,0,0,1-2-.4,1.35,1.35,0,0,1,.53-1.86,1.38,1.38,0,0,1,1.91.39A1.32,1.32,0,0,1,262.46,24.1Z"/><path class="cls-1" d="M260.55,21.41a1.48,1.48,0,0,1-2.05-.21,1.32,1.32,0,0,1,.32-1.9,1.39,1.39,0,0,1,1.95.21A1.32,1.32,0,0,1,260.55,21.41Z"/><path class="cls-1" d="M258.42,18.9a1.52,1.52,0,0,1-2.09,0A1.42,1.42,0,0,1,258.46,17,1.31,1.31,0,0,1,258.42,18.9Z"/><path class="cls-1" d="M256.06,16.6a1.5,1.5,0,0,1-2.07.15,1.32,1.32,0,0,1,0-1.94,1.39,1.39,0,0,1,2-.12A1.35,1.35,0,0,1,256.06,16.6Z"/><path class="cls-1" d="M253.52,14.5a1.49,1.49,0,0,1-2.05.32,1.35,1.35,0,0,1-.17-1.94,1.41,1.41,0,0,1,1.95-.28A1.36,1.36,0,0,1,253.52,14.5Z"/><path class="cls-1" d="M250.81,12.63a1.54,1.54,0,0,1-2,.5,1.34,1.34,0,0,1-.32-1.93,1.38,1.38,0,0,1,1.89-.43A1.33,1.33,0,0,1,250.81,12.63Z"/><path class="cls-1" d="M248,11a1.57,1.57,0,0,1-2,.68,1.34,1.34,0,0,1-.49-1.89,1.41,1.41,0,0,1,1.86-.62A1.39,1.39,0,0,1,248,11Z"/><path class="cls-1" d="M245,9.62a1.54,1.54,0,0,1-1.93.86,1.34,1.34,0,0,1-.64-1.83,1.37,1.37,0,0,1,2.57,1Z"/><path class="cls-1" d="M241.83,8.54a1.51,1.51,0,0,1-1.84,1,1.36,1.36,0,0,1-.83-1.77,1.44,1.44,0,0,1,1.74-.93A1.39,1.39,0,0,1,241.83,8.54Z"/><path class="cls-1" d="M238.63,7.7a1.54,1.54,0,0,1-1.74,1.16,1.35,1.35,0,0,1-1-1.71c.1-.67.75-1.09,1.64-1.07A1.41,1.41,0,0,1,238.63,7.7Z"/><path class="cls-1" d="M235.38,7.15a1.53,1.53,0,0,1-1.66,1.3,1.36,1.36,0,0,1-1.08-1.62c0-.66.62-1.16,1.54-1.2A1.42,1.42,0,0,1,235.38,7.15Z"/><path class="cls-1" d="M228,53.45a7.83,7.83,0,0,0,.37,2.69,3.34,3.34,0,0,0,2.56,2.3,14.64,14.64,0,0,0,2,.33H217.55a14.57,14.57,0,0,0,2.06-.33,3.61,3.61,0,0,0,1.57-.76,3.68,3.68,0,0,0,1-1.54,8.09,8.09,0,0,0,.37-2.69V20.85h-.07A14,14,0,0,0,216.34,22a10.91,10.91,0,0,0-3.53,2.6,9.33,9.33,0,0,0-1.77,3c-.33,1-.59,1.7-.76,2.14l1.93-9.33h26l2,9.33c-.18-.44-.45-1.16-.8-2.14a10.13,10.13,0,0,0-1.77-3,10.49,10.49,0,0,0-3.53-2.6,14,14,0,0,0-6.1-1.13H228Zm3.12-6.89,1.62-7.35h18.18v.61l.28,24.26c0,5.69-4.7,8.83-11.25,8.83S229.79,69.16,229.79,66c0-3.56,4.37-4.18,4.37,0,0,3.13,1.9,6.31,5.69,6.31,4,0,6.6-2.66,6.6-6.27l-.14-26.44h-6.88c-4.37,0-6.74,2.71-8.07,6.93Z"/><path class="cls-1" d="M462.11,103h-2.18v-.79h5.27V103H463v5.59h-.9Z"/><path class="cls-1" d="M472.1,108.55V103.9l-2.3,3.87h-.42l-2.3-3.84v4.62h-.88v-6.38h.75l2.66,4.48,2.62-4.48H473v6.38Z"/><path class="cls-1" d="M269.47,10A2.88,2.88,0,0,1,268.36,9a3,3,0,0,1-.4-1.54,3,3,0,0,1,.4-1.55,2.88,2.88,0,0,1,1.12-1.07,3.3,3.3,0,0,1,1.6-.39,3.21,3.21,0,0,1,1.26.23,2.59,2.59,0,0,1,1,.68l-.55.53a2.22,2.22,0,0,0-1.66-.7,2.33,2.33,0,0,0-1.18.3,2.15,2.15,0,0,0-.83.81,2.28,2.28,0,0,0-.3,1.16,2.24,2.24,0,0,0,.3,1.15,2.11,2.11,0,0,0,.83.82,2.43,2.43,0,0,0,1.18.29A2.21,2.21,0,0,0,272.77,9l.55.53a2.5,2.5,0,0,1-1,.69,3.48,3.48,0,0,1-2.87-.15Z"/><path class="cls-1" d="M270.93,12.73a5.32,5.32,0,1,1,5.32-5.32A5.32,5.32,0,0,1,270.93,12.73Zm0-10.36a5,5,0,1,0,5.05,5A5,5,0,0,0,270.93,2.37Z"/></g></g></svg>