<svg id="Layer_1" data-name="Layer 1" xmlns="http://www.w3.org/2000/svg" viewBox="0 0 24.86 19.1"><defs><style>.cls-1{fill:#143932;}</style></defs><g id="Layer_2" data-name="Layer 2"><g id="Layer_1-2" data-name="Layer 1-2"><path class="cls-1" d="M1.85.27l8.62,9.78a2.58,2.58,0,0,0,3.64.24,2.72,2.72,0,0,0,.24-.24L22.82.44a.88.88,0,0,1,.24-.19A2.8,2.8,0,0,0,21.89,0h-19A3,3,0,0,0,1.8.22Z" transform="translate(0 0)"/><path class="cls-1" d="M24.37,1.37a.81.81,0,0,1-.17.28l-8.47,9.62a4.43,4.43,0,0,1-6.24.4,5,5,0,0,1-.4-.4L.47,1.48V1.42A3,3,0,0,0,0,2.93V16.17A2.93,2.93,0,0,0,2.93,19.1h19a2.93,2.93,0,0,0,2.93-2.93h0V2.93A3.06,3.06,0,0,0,24.37,1.37Z" transform="translate(0 0)"/></g></g></svg>