<svg id="Layer_1" data-name="Layer 1" xmlns="http://www.w3.org/2000/svg" viewBox="0 0 97.52 91.07"><defs><style>.cls-1{fill:#231f20;}</style></defs><path class="cls-1" d="M49.33,79.84a47.87,47.87,0,0,1-22.22-5.45A5.72,5.72,0,0,1,24,69.31a25.31,25.31,0,1,1,50.62,0,5.73,5.73,0,0,1-3.1,5.1A47.83,47.83,0,0,1,49.33,79.84Zm0-31.59a21.06,21.06,0,0,0-21,21,1.5,1.5,0,0,0,.8,1.32,43.81,43.81,0,0,0,40.46,0,1.51,1.51,0,0,0,.8-1.3A21.07,21.07,0,0,0,49.33,48.25Z"/><path class="cls-1" d="M49.33,41.54a14.41,14.41,0,0,1-12.4-7.13,14.88,14.88,0,0,1,.23-15.11A11.34,11.34,0,0,1,41.43,15a14.84,14.84,0,0,1,15.1-.23,14.34,14.34,0,0,1-7.2,26.73Zm0-25a12.38,12.38,0,0,0-6.11,1.69,7.63,7.63,0,0,0-2.88,2.87,11.28,11.28,0,0,0-.25,11.45A10.66,10.66,0,1,0,54.68,18,10.54,10.54,0,0,0,49.35,16.55Z"/></svg>