<svg data-name="Layer 2" viewBox="0 0 200 200" xmlns="http://www.w3.org/2000/svg"><path transform="rotate(-45 100 99.998)" d="M-16.34 80h232.67v40H-16.34z" fill="#ffffff" class="fill-ffffff"></path><path transform="rotate(-45 103.18 103.182)" d="M-13.15 87.68h232.67v31H-13.15z" fill="#ffffff" class="fill-ffc861"></path><path transform="rotate(45 99.998 100)" d="M80-16.33h40v232.67H80z" stroke-linecap="round" stroke-linejoin="round" stroke-width="6px" fill="none" stroke="#000000" class="stroke-2f4360"></path><path d="M159.16 12.56 173.3 26.7M155.06 16.66l7.07 7.07M150.95 20.77l7.07 7.07M146.85 24.87l7.07 7.07M142.74 28.98l7.07 7.07M142.74 28.98l14.14 14.14M138.64 33.08l7.07 7.08M134.53 37.19l7.07 7.07M130.42 41.3l7.08 7.07M126.32 45.4l7.07 7.07M126.32 45.4l14.14 14.14M122.21 49.51l7.07 7.07M118.11 53.61l7.07 7.07M114 57.72l7.07 7.07M109.9 61.82l7.07 7.07M109.9 61.82l14.14 14.14M105.79 65.93l7.07 7.07M101.69 70.03l7.07 7.07M97.58 74.14l7.07 7.07M93.47 78.24l7.08 7.08M93.47 78.24l14.15 14.15M89.37 82.35l7.07 7.07M85.26 86.46l7.07 7.07M81.16 90.56l7.07 7.07M77.05 94.67l7.07 7.07M77.05 94.67l14.14 14.14M72.95 98.77l7.07 7.07M68.84 102.88l7.07 7.07M64.74 106.98l7.07 7.07M60.63 111.09l7.07 7.07M60.63 111.09l14.14 14.14M56.52 115.19l7.08 7.08M52.42 119.3l7.07 7.07M48.31 123.41l7.07 7.07M44.21 127.51l7.07 7.07M44.21 127.51l14.14 14.14M40.1 131.62l7.07 7.07M36 135.72l7.07 7.07M31.89 139.83l7.07 7.07M27.79 143.93l7.07 7.07M27.79 143.93l14.14 14.15M23.68 148.04l7.07 7.07M19.57 152.14l7.08 7.08M15.47 156.25l7.07 7.07M11.36 160.36l7.07 7.07" stroke-miterlimit="10" stroke-width="2.25px" fill="none" stroke="#000000" class="stroke-2f4360"></path></svg>