<svg id="Layer_1" data-name="Layer 1" xmlns="http://www.w3.org/2000/svg" viewBox="0 0 97.52 91.07"><defs><style>.cls-1{fill:#231f20;}</style></defs><g id="Search"><path class="cls-1" d="M80.06,71.38l-17.6-17.6a1.53,1.53,0,0,0-.16-.11A23,23,0,0,0,44.14,16.44c-9.32,0-18.63,5.62-22.44,16.84a19.44,19.44,0,0,0,0,12.43c3.81,11.22,13.12,16.84,22.44,16.84a23,23,0,0,0,14.17-4.9c0,.05.06.12.11.16L76,75.42a2.89,2.89,0,0,0,2,.83,2.85,2.85,0,0,0,2-4.87ZM57.43,52.79A18.79,18.79,0,1,1,62.94,39.5,18.67,18.67,0,0,1,57.43,52.79Z"/><path class="cls-1" d="M39.42,30.71a7.62,7.62,0,0,0-3.22,2.17A8.52,8.52,0,0,0,34.81,35a1.82,1.82,0,0,1-1.61,1.09,1.65,1.65,0,0,1-.85-.23,2.16,2.16,0,0,1-.77-2.76,12.84,12.84,0,0,1,2-3.09,11.25,11.25,0,0,1,4.74-3.17,1.8,1.8,0,0,1,2.28,1.35A2.09,2.09,0,0,1,39.42,30.71Z"/><path class="cls-1" d="M39.42,30.71a7.62,7.62,0,0,0-3.22,2.17A8.52,8.52,0,0,0,34.81,35a1.82,1.82,0,0,1-1.61,1.09,1.65,1.65,0,0,1-.85-.23,2.16,2.16,0,0,1-.77-2.76,12.84,12.84,0,0,1,2-3.09,11.25,11.25,0,0,1,4.74-3.17,1.8,1.8,0,0,1,2.28,1.35A2.09,2.09,0,0,1,39.42,30.71Z"/></g></svg>