<svg xmlns="http://www.w3.org/2000/svg" viewBox="0 0 117.39 194.84"><defs><style>.cls-1{fill:#fff;}</style></defs><g id="Layer_2" data-name="Layer 2"><g id="Layer_1-2" data-name="Layer 1"><polygon class="cls-1" points="42.19 193.03 29.05 172.75 7.44 183.55 33.33 88.63 68.08 98.11 42.19 193.03"/><path d="M42.19,194.84a1.82,1.82,0,0,1-1.52-.83L28.41,175.1,8.25,185.17a1.81,1.81,0,0,1-2.56-2.1L31.57,88.15a1.83,1.83,0,0,1,2.23-1.27l34.75,9.47a1.82,1.82,0,0,1,1.28,2.24L44,193.5a1.83,1.83,0,0,1-1.48,1.32ZM29.05,170.93a1.84,1.84,0,0,1,1.53.83l10.93,16.87L65.85,99.38,34.6,90.86,10.26,180.11l18-9A1.81,1.81,0,0,1,29.05,170.93Z"/><polygon class="cls-1" points="75.2 193.03 88.34 172.75 109.95 183.55 84.07 88.63 49.32 98.11 75.2 193.03"/><path d="M75.2,194.84l-.28,0a1.82,1.82,0,0,1-1.47-1.32L47.56,98.59a1.84,1.84,0,0,1,1.28-2.24l34.75-9.47a1.82,1.82,0,0,1,2.23,1.27l25.89,94.92a1.82,1.82,0,0,1-.61,1.88,1.8,1.8,0,0,1-2,.22L89,175.1,76.73,194A1.83,1.83,0,0,1,75.2,194.84ZM51.55,99.38l24.34,89.25,10.93-16.87a1.81,1.81,0,0,1,2.33-.64l18,9L82.79,90.86Z"/><polygon class="cls-1" points="115.58 58.7 106.42 68.2 111.26 80.47 99.16 85.73 98.92 98.92 85.72 99.16 80.47 111.26 68.2 106.42 58.7 115.58 49.2 106.42 36.92 111.26 31.67 99.16 18.48 98.92 18.24 85.73 6.13 80.47 10.97 68.2 1.82 58.7 10.97 49.2 6.13 36.92 18.24 31.67 18.48 18.48 31.67 18.24 36.92 6.13 49.2 10.97 58.7 1.82 68.2 10.97 80.47 6.13 85.73 18.24 98.92 18.48 99.16 31.67 111.26 36.92 106.42 49.2 115.58 58.7"/><path d="M58.7,117.39a1.83,1.83,0,0,1-1.26-.5l-8.66-8.35L37.59,113a1.81,1.81,0,0,1-2.33-1l-4.79-11-12-.22A1.81,1.81,0,0,1,16.66,99l-.22-12-11-4.79a1.82,1.82,0,0,1-1-2.34L8.85,68.62.51,60a1.81,1.81,0,0,1,0-2.52l8.34-8.66L4.44,37.59a1.81,1.81,0,0,1,1-2.33l11-4.79.22-12a1.82,1.82,0,0,1,1.78-1.78l12-.22,4.79-11a1.82,1.82,0,0,1,2.33-1L48.78,8.85,57.44.51A1.81,1.81,0,0,1,60,.51l8.66,8.34L79.8,4.44a1.83,1.83,0,0,1,2.34,1l4.79,11,12,.22a1.81,1.81,0,0,1,1.78,1.78l.22,12,11,4.79a1.81,1.81,0,0,1,1,2.33l-4.41,11.19,8.34,8.66a1.81,1.81,0,0,1,0,2.52l-8.34,8.66L113,79.8a1.82,1.82,0,0,1-1,2.34l-11,4.79-.22,12A1.8,1.8,0,0,1,99,100.73l-12,.22-4.79,11a1.82,1.82,0,0,1-2.34,1l-11.18-4.41L60,116.89A1.85,1.85,0,0,1,58.7,117.39Zm-9.5-12.78a1.83,1.83,0,0,1,1.26.5l8.24,7.94,8.24-7.94a1.81,1.81,0,0,1,1.92-.38l10.64,4.2,4.56-10.5a1.81,1.81,0,0,1,1.63-1.09l11.44-.21.21-11.44a1.81,1.81,0,0,1,1.09-1.63l10.49-4.56-4.19-10.64a1.81,1.81,0,0,1,.38-1.92l7.94-8.24-7.94-8.24a1.83,1.83,0,0,1-.38-1.93l4.19-10.64L98.43,33.33a1.81,1.81,0,0,1-1.09-1.63l-.21-11.44-11.44-.21A1.81,1.81,0,0,1,84.06,19L79.5,8.47,68.86,12.66a1.81,1.81,0,0,1-1.92-.38L58.7,4.34l-8.24,7.94a1.83,1.83,0,0,1-1.93.38L37.89,8.47,33.33,19a1.81,1.81,0,0,1-1.63,1.09l-11.44.21L20.05,31.7A1.81,1.81,0,0,1,19,33.33L8.47,37.89l4.19,10.64a1.83,1.83,0,0,1-.38,1.93L4.34,58.7l7.94,8.24a1.81,1.81,0,0,1,.38,1.92L8.47,79.5,19,84.06a1.81,1.81,0,0,1,1.09,1.63l.21,11.44,11.44.21a1.81,1.81,0,0,1,1.63,1.09l4.56,10.49,10.64-4.19A1.93,1.93,0,0,1,49.2,104.61Z"/><circle class="cls-1" cx="58.7" cy="58.7" r="34.13" transform="translate(-24.31 58.7) rotate(-45)"/><path d="M58.7,94.64A35.95,35.95,0,1,1,94.64,58.7,36,36,0,0,1,58.7,94.64Zm0-68.25A32.31,32.31,0,1,0,91,58.7,32.34,32.34,0,0,0,58.7,26.39Z"/><polygon class="cls-1" points="58.7 30.81 67.05 47.73 85.73 50.45 72.21 63.62 75.4 82.23 58.7 73.44 41.99 82.23 45.18 63.62 31.66 50.45 50.34 47.73 58.7 30.81"/><path d="M42,84a1.8,1.8,0,0,1-1.79-2.12l3-17.66L30.39,51.75a1.82,1.82,0,0,1,1-3.1l17.74-2.58L57.07,30a1.82,1.82,0,0,1,3.26,0l7.93,16.07L86,48.65a1.82,1.82,0,0,1,1,3.1L74.17,64.26l3,17.66a1.81,1.81,0,0,1-2.63,1.91L58.7,75.5,42.83,83.83A1.77,1.77,0,0,1,42,84ZM58.7,71.63a1.77,1.77,0,0,1,.84.21L73,78.91l-2.57-15a1.85,1.85,0,0,1,.52-1.61l10.89-10.6-15-2.19a1.85,1.85,0,0,1-1.37-1L58.7,34.91,52,48.54a1.82,1.82,0,0,1-1.37,1l-15,2.19,10.88,10.6A1.82,1.82,0,0,1,47,63.93l-2.57,15,13.45-7.07A1.84,1.84,0,0,1,58.7,71.63Z"/></g></g></svg>