<svg id="Layer_1" data-name="Layer 1" xmlns="http://www.w3.org/2000/svg" viewBox="0 0 24.82 24.94"><defs><style>.cls-1,.cls-2{fill:#143932;}.cls-2{fill-rule:evenodd;}</style></defs><g id="Layer_2" data-name="Layer 2"><g id="Layer_1-2" data-name="Layer 1-2"><path class="cls-1" d="M0,24.82l1.78-6.64A12.3,12.3,0,1,1,6.67,23Zm7-4.28.42.25A10,10,0,1,0,4,17.41l.26.42-1,3.71Z" transform="translate(0 0.12)"/><path class="cls-2" d="M17.06,14a2.05,2.05,0,0,0-1.76-.39c-.45.18-.74.9-1,1.26a.42.42,0,0,1-.56.12,7.91,7.91,0,0,1-4-3.39.49.49,0,0,1,.06-.67,2.84,2.84,0,0,0,.72-1.17,2.47,2.47,0,0,0-.32-1.38,3.34,3.34,0,0,0-1-1.55A1.43,1.43,0,0,0,7.64,7,3.08,3.08,0,0,0,6.57,9.47a4,4,0,0,0,.1.77A6.64,6.64,0,0,0,7.41,12a13.37,13.37,0,0,0,.78,1.18,11.91,11.91,0,0,0,3.38,3.14,10.12,10.12,0,0,0,2.1,1,4.68,4.68,0,0,0,2.45.38A3,3,0,0,0,18.34,16a1.43,1.43,0,0,0,.1-.84C18.31,14.59,17.53,14.24,17.06,14Z" transform="translate(0 0.12)"/></g></g></svg>