<svg id="Layer_1" data-name="Layer 1" xmlns="http://www.w3.org/2000/svg" viewBox="0 0 97.52 91.07"><defs><style>.cls-1{fill:#231f20;}</style></defs><path class="cls-1" d="M49.66,73a6.63,6.63,0,0,1-4.48-1.76L22.37,50.3a17.3,17.3,0,0,1,0-25.88,18.76,18.76,0,0,1,24.88,0l1.22,1.12a1.74,1.74,0,0,0,2.37,0l1.22-1.12a18.76,18.76,0,0,1,24.88,0h0a17.3,17.3,0,0,1,0,25.88L54.13,71.24A6.62,6.62,0,0,1,49.66,73ZM34.81,24.53A13.53,13.53,0,0,0,25.65,28a12.44,12.44,0,0,0,0,18.71L48.47,67.66a1.74,1.74,0,0,0,2.37,0L73.66,46.72a12.44,12.44,0,0,0,0-18.71h0a13.8,13.8,0,0,0-18.31,0l-1.22,1.12a6.59,6.59,0,0,1-9,0L44,28A13.5,13.5,0,0,0,34.81,24.53Z"/></svg>